<svg class="section-divider" viewBox="0 0 1920 60" aria-hidden="true">
<path data-theme="softSecondary" fill="#EFE6DC" d="m0-0.4h1920v39.1q-0.9-0.1-1.7-0.2-1.3-2.1-2.4-4h-103.4c-7.7 1.6-13.8 3.3-17.5 5.4-15.1 2.5-28.3 5.2-46.6 7.2-10.4-0.3-17.4 0.7-27.6 0.7-11.2 0.1-37.8-0.4-48.3-0.9-16.3-0.8-21.2-3.6-36.2-4.3-10.3 3.9-17.9 6.7-25.9 11-12.7 2.2-33.9 3.3-53.4 4.5-12.1-1-27.7-0.2-39.7-1.4-14.9 2.1-33.4 4.5-58.6 4.3-11.1 3.6-21 7.3-53.5 7.9-12-0.8-35-1.3-48.3-1.2-14.6-1.3-23.8-3.4-36.2-5-19.4 3.9-63.7 4.1-100.1 2.2-4.3-0.3-1.7-1.5-6.9-1.7-14.1-0.3-8.1 2.2-22.4 1.9-10 5.4-57.6 4.2-93.1 2.9-5.6 0.5-7.2 1.6-6.9 2.9-9.8 1.5-26.2 2.1-39.7 3.1-24.3 0.2-42.4-1.9-65.5-2.6-5.4-2.1-16.4-3.4-20.7-5.6-24.5 3.2-75.5 1.2-98.4-0.7-16.7 1.7-23.3-0.9-39.6-1.4-3.6-0.2-8.2 0.1-10.4 0-15-1-20.4-3-20.7-4.8-28 1.2-76.2 0.4-84.5-3.4-25.8 0.3-31.9 3.2-55.2 3.8-23.7-0.9-52.3-0.3-63.8-3.3-3.4 0-2.2 0.6-6.9 0.5-4.7-2.1-17.7-3-22.4-5.1-27.4-0.6-47.7-2.3-50-6.5-30.6 0.1-73.1 0.7-77.7-5-20.9 2.7-21.3 8.2-62.1 8.2-7.8 0.3-6.7-0.7-13.8-0.5-13.4 0.6-23.8 2.4-39.6 1.9-14.9-2-37.4-1.5-48.3-3.8v-1.5c-12.4-2-33.9 0.8-50 0.5-3.3 1.5-14 1.9-24.2 2.4-15.7-1.2-33.9-0.5-48.3-1.9-20.9 0.4-47.3 0.2-74.2 0.2-13.5-0.1-27.1-0.1-40.2 0.1-6.6 0.1-13 0.2-19.3 0.3l-9.2 0.3-6.6 0.2">
</path>
</svg>